<?xml version="1.0" standalone="no"?>
<!DOCTYPE svg PUBLIC "-//W3C//DTD SVG 20010904//EN"
 "http://www.w3.org/TR/2001/REC-SVG-20010904/DTD/svg10.dtd">
<svg version="1.0" xmlns="http://www.w3.org/2000/svg"
 width="500.000000pt" height="500.000000pt" viewBox="0 0 500.000000 500.000000"
 preserveAspectRatio="xMidYMid meet">
<metadata>
Created by potrace 1.16, written by Peter Selinger 2001-2019
</metadata>
<g transform="translate(0.000000,500.000000) scale(0.100000,-0.100000)"
fill="#000000" stroke="none">
<path d="M2956 3459 c4 -7 1 -10 -7 -7 -8 3 -20 -1 -27 -9 -7 -7 -21 -13 -30
-13 -13 1 -10 5 8 16 l25 15 -25 -6 c-14 -4 -37 -9 -51 -12 -23 -4 -26 -9 -22
-34 2 -16 -1 -37 -7 -46 -10 -16 -11 -14 -6 7 6 28 -7 59 -18 42 -3 -6 -15 -8
-25 -5 -13 3 -23 -2 -30 -16 -7 -12 -16 -21 -22 -21 -6 0 -7 5 -3 11 9 15 -46
4 -113 -24 -52 -20 -74 -44 -30 -32 19 5 20 5 4 -5 -14 -9 -22 -8 -34 2 -12 9
-15 9 -9 1 4 -8 2 -13 -8 -13 -8 0 -18 -4 -21 -10 -4 -6 1 -7 12 -4 15 5 15 4
3 -4 -15 -12 -34 -6 -25 8 3 5 -2 16 -11 25 -13 12 -14 19 -5 28 16 16 14 30
-4 23 -19 -7 -19 11 0 48 21 40 19 47 -5 12 -10 -17 -22 -47 -25 -68 -8 -46
11 -102 31 -94 14 5 20 -15 8 -27 -11 -11 -65 23 -57 36 4 7 -8 0 -26 -16 -18
-15 -38 -24 -43 -21 -6 4 -8 2 -4 -4 3 -6 -3 -17 -15 -26 -12 -8 -18 -19 -15
-25 4 -6 1 -9 -6 -6 -7 3 -51 -24 -98 -59 -47 -35 -94 -66 -105 -68 -11 -2
-22 -8 -25 -14 -3 -6 -45 -54 -94 -106 -71 -76 -89 -102 -90 -127 -1 -17 -1
-31 0 -31 1 0 46 45 101 100 129 129 168 144 213 81 24 -35 51 -132 43 -160
-5 -21 -72 -59 -120 -67 -40 -7 -46 -17 -18 -30 21 -10 25 -9 30 7 4 10 10 19
15 19 13 0 1 -52 -16 -64 -21 -16 -35 -73 -19 -80 7 -2 16 -23 20 -45 4 -23
11 -41 16 -41 5 0 9 -9 9 -20 0 -11 -4 -20 -10 -20 -5 0 -9 3 -8 8 1 4 -5 21
-15 38 -9 17 -14 34 -12 36 3 3 -1 5 -9 5 -10 0 -9 -8 6 -33 11 -18 17 -38 14
-43 -10 -15 12 -61 29 -61 8 0 15 -5 15 -11 0 -5 -4 -7 -10 -4 -12 8 -13 0 -1
-23 5 -9 12 -25 15 -34 3 -10 17 -20 31 -24 34 -8 65 19 65 58 0 15 5 28 10
28 6 0 10 -8 10 -17 0 -15 2 -16 10 -3 6 9 10 10 10 3 0 -6 -4 -15 -10 -18
-16 -10 -11 -35 8 -36 14 0 14 -2 -3 -9 -17 -7 -17 -9 -2 -9 9 -1 17 -4 17 -7
0 -12 -26 -30 -38 -26 -17 5 -15 -13 3 -28 18 -15 10 -31 -10 -24 -9 4 -18 -1
-22 -12 -4 -10 -2 -19 5 -22 7 -2 9 -8 6 -14 -4 -6 2 -5 15 1 17 10 20 9 15
-4 -8 -21 24 -55 52 -55 16 0 21 -5 20 -17 -2 -10 1 -21 6 -24 5 -3 1 -14 -9
-24 -17 -18 -17 -18 4 -13 20 5 21 4 11 -18 -8 -17 -15 -21 -22 -14 -14 14
-26 12 -26 -5 0 -8 4 -15 8 -15 5 0 15 -19 23 -42 7 -24 20 -49 29 -56 13 -10
12 -11 -5 -5 -11 3 -23 10 -26 15 -3 5 -12 1 -20 -8 -9 -12 -10 -15 -1 -10 7
4 12 1 12 -9 0 -9 -4 -13 -10 -10 -17 10 -11 -22 7 -40 16 -16 17 -16 30 1 7
10 13 24 13 31 0 15 19 17 39 4 12 -8 13 -12 1 -26 -7 -9 -19 -14 -26 -11 -17
6 -28 -10 -18 -26 12 -18 14 -87 4 -93 -6 -4 -11 -1 -11 4 -1 6 -2 16 -3 21
-3 25 -21 12 -24 -18 -3 -34 13 -66 29 -56 14 8 49 -15 43 -29 -8 -23 30 -49
57 -39 13 5 39 7 57 5 41 -7 62 11 63 51 2 111 1 108 36 128 27 16 33 26 33
53 0 22 -7 39 -19 47 -14 10 -17 18 -10 28 16 27 10 48 -27 85 -32 34 -53 85
-34 85 16 0 31 -28 20 -35 -16 -10 7 -35 31 -35 26 0 47 45 32 68 -5 10 -8 31
-6 48 3 20 -1 36 -12 47 -9 10 -12 17 -6 17 19 0 41 32 41 60 0 16 5 41 12 57
6 15 11 31 10 36 -1 4 3 7 9 7 6 0 9 -6 6 -14 -4 -9 3 -16 19 -19 45 -8 71 33
49 77 -8 15 -10 26 -4 26 6 0 9 17 8 39 -3 33 3 45 34 80 37 41 39 58 10 92
-7 9 -10 20 -6 24 5 5 0 3 -10 -4 -15 -12 -17 -12 -11 3 4 9 0 18 -9 22 -11 4
-14 16 -11 42 6 48 -5 63 -52 71 -30 5 -40 11 -42 29 -5 31 -38 51 -76 45 -26
-4 -34 -1 -45 20 -18 33 -8 47 34 45 36 -1 54 7 42 18 -4 4 -13 1 -21 -5 -11
-9 -16 -9 -22 0 -4 7 1 18 11 26 11 7 14 13 9 13 -6 0 -15 -5 -22 -12 -9 -9
-12 -9 -12 0 0 7 -5 12 -11 12 -8 0 -8 -4 0 -14 7 -8 8 -17 3 -20 -14 -8 -35
21 -28 39 3 9 12 12 22 8 12 -4 15 -3 10 5 -4 7 -14 12 -22 12 -8 0 -14 7 -14
16 0 9 5 12 13 8 9 -6 9 -5 0 7 -6 8 -17 37 -24 64 -6 28 -23 72 -36 98 -18
36 -21 52 -13 62 24 29 276 132 290 119 3 -3 4 -28 3 -55 0 -27 3 -46 8 -43 5
3 9 16 9 29 0 50 8 55 81 55 39 0 69 4 69 10 0 6 -20 10 -44 10 -42 0 -67 12
-48 24 5 3 42 11 83 17 78 12 99 22 78 34 -8 5 -10 4 -5 -3 4 -7 1 -12 -8 -12
-8 0 -17 4 -21 10 -3 5 -12 7 -20 3 -8 -3 -15 0 -15 6 0 6 -5 11 -11 11 -5 0
-7 -5 -3 -11z m-473 -251 c40 -19 69 -96 75 -195 2 -45 7 -81 11 -80 9 3 9
-16 0 -41 -12 -30 -11 -42 1 -42 5 0 7 7 4 15 -9 23 2 18 20 -10 20 -30 7 -75
-21 -70 -10 2 -20 4 -23 4 -3 1 -5 20 -5 42 0 30 -5 45 -20 55 -29 19 -69 -2
-73 -39 -4 -31 -22 -37 -22 -8 0 30 18 71 60 136 43 68 63 118 37 94 -8 -8
-13 -17 -11 -21 7 -12 -8 -38 -19 -31 -5 3 -7 1 -4 -4 4 -6 -5 -23 -18 -37
-14 -15 -25 -34 -25 -42 0 -7 -5 -13 -12 -11 -6 1 -12 -7 -13 -18 -1 -11 -2
-32 -3 -47 -1 -18 -8 -28 -18 -28 -9 0 -13 5 -9 13 4 6 -5 -1 -19 -16 -14 -15
-26 -33 -26 -39 0 -5 9 0 21 13 11 13 17 18 14 10 -6 -10 -2 -11 14 -6 17 5
21 2 21 -15 0 -12 -5 -18 -10 -15 -6 3 -13 -1 -16 -10 -5 -13 -9 -13 -22 -3
-13 11 -14 11 -7 -2 8 -13 6 -13 -8 -2 -14 12 -17 10 -23 -12 -3 -14 -10 -26
-15 -26 -6 0 -5 9 1 20 9 17 8 20 -9 20 -11 0 -22 -5 -24 -10 -3 -6 -4 -5 -3
2 1 7 11 15 22 16 21 4 44 29 44 49 0 8 -13 13 -35 13 -30 0 -36 4 -41 28 -18
82 -27 103 -52 130 -20 21 -26 36 -21 49 11 30 68 73 97 74 22 0 23 2 9 8 -15
6 -8 14 39 46 85 59 95 62 137 43z"/>
<path d="M3013 3070 c-7 -11 -19 -17 -27 -14 -8 3 -17 1 -21 -5 -4 -7 0 -8 11
-4 14 5 15 3 5 -15 -26 -48 -57 -72 -96 -72 -45 0 -41 9 7 17 36 5 51 13 25
13 -14 0 -15 4 -6 27 8 22 7 29 -8 37 -32 18 -40 14 -41 -21 -2 -43 -10 -56
-31 -48 -25 10 -61 13 -61 5 0 -4 7 -11 16 -14 9 -4 14 -9 11 -13 -4 -3 -2
-14 4 -24 7 -15 6 -17 -6 -13 -9 4 -15 1 -15 -7 0 -8 -7 -4 -15 8 -10 14 -22
20 -33 17 -14 -5 -14 -3 2 6 12 8 21 9 25 2 4 -6 10 -5 18 3 9 10 8 14 -9 18
-13 4 -17 10 -12 18 4 8 3 10 -4 5 -7 -4 -12 -2 -12 3 0 6 -5 11 -11 11 -5 0
-7 -4 -4 -10 3 -5 1 -10 -4 -10 -6 0 -11 5 -11 10 0 6 -5 10 -10 10 -7 0 -7
-6 0 -19 7 -13 16 -17 31 -14 15 4 20 3 15 -6 -4 -6 -12 -9 -17 -6 -5 4 -9 1
-9 -5 0 -6 -4 -8 -10 -5 -5 3 -10 4 -10 0 0 -3 15 -15 33 -26 17 -12 23 -18
13 -15 -16 6 -17 4 -6 -9 11 -13 15 -13 21 -3 5 7 9 9 9 4 0 -5 6 -3 14 3 11
9 18 8 31 -5 15 -15 16 -15 13 12 -2 16 -6 31 -10 34 -4 3 -3 12 2 20 7 11 10
8 13 -11 24 -122 43 -194 52 -202 6 -6 9 -21 7 -34 -4 -19 -1 -22 13 -17 14 6
16 3 12 -12 -4 -10 1 -30 9 -44 10 -17 13 -18 8 -5 -3 11 -6 27 -6 35 0 8 -7
31 -16 50 -9 19 -15 41 -13 49 1 8 -2 10 -11 5 -7 -4 -4 3 7 16 l20 23 -24 -8
c-19 -6 -23 -4 -18 7 3 8 1 21 -3 29 -5 8 -4 19 2 26 7 9 7 17 1 26 -6 6 -13
20 -16 29 -5 15 0 17 41 14 26 -2 64 -10 84 -19 20 -8 39 -13 41 -10 3 3 11
-4 18 -15 10 -16 18 -18 36 -11 21 8 27 5 24 -13 0 -3 7 -5 15 -4 22 3 38 33
23 42 -7 4 -9 3 -6 -3 4 -6 0 -13 -8 -17 -8 -3 -17 -1 -20 4 -4 6 -1 10 5 10
6 0 8 5 5 10 -3 6 -2 10 4 10 12 0 6 39 -8 53 -5 5 -7 16 -4 25 4 10 2 13 -8
10 -8 -3 -12 -12 -10 -19 2 -8 4 -20 4 -26 0 -7 6 -13 13 -13 10 0 9 -7 -2
-29 -12 -23 -19 -27 -41 -23 -25 5 -25 6 -8 13 24 9 22 10 -31 13 -33 2 -91
23 -74 26 33 8 47 7 64 -1 17 -8 16 -7 -3 9 -14 12 -32 17 -45 14 -18 -5 -17
-2 8 21 16 15 25 27 20 27 -5 1 2 9 14 20 13 11 22 24 20 30 -2 6 -9 1 -15
-10z"/>
<path d="M3012 2490 c-12 -10 -18 -20 -15 -24 9 -9 -10 -7 -26 3 -8 5 -24 3
-42 -6 -16 -8 -34 -11 -40 -7 -7 4 -10 1 -7 -7 3 -8 15 -19 27 -25 12 -6 28
-20 36 -30 8 -11 15 -14 15 -9 0 6 5 3 11 -5 8 -11 12 -12 16 -2 2 6 12 12 21
12 13 0 14 -2 4 -8 -10 -7 -8 -12 5 -24 34 -29 49 -28 51 4 1 16 -1 27 -6 24
-4 -2 -8 4 -8 15 0 10 7 19 14 19 8 0 12 -6 9 -15 -4 -8 -2 -17 3 -20 6 -4 10
4 10 18 0 13 9 33 20 45 23 25 22 26 -12 13 -17 -6 -29 -5 -43 6 -17 13 -17
15 -2 10 22 -8 21 -5 -1 14 -17 15 -21 14 -40 -1z"/>
<path d="M2009 2472 c-1 -4 0 -17 1 -29 1 -13 -3 -24 -9 -24 -6 -1 -17 -2 -23
-3 -7 -1 -12 -10 -10 -20 2 -10 -1 -15 -6 -12 -6 3 -12 -1 -15 -8 -4 -10 0
-13 14 -11 14 3 19 -1 17 -12 -2 -9 -13 -17 -25 -18 -12 -1 -20 2 -17 6 2 4
-1 11 -8 15 -7 4 -10 4 -6 -1 4 -4 3 -14 -3 -21 -6 -7 -8 -18 -4 -24 11 -18
42 -11 59 15 9 14 22 25 28 25 6 0 4 -8 -6 -19 -22 -24 -4 -38 18 -15 24 23
66 11 61 -17 -3 -12 -1 -18 3 -15 4 4 7 13 7 19 0 7 5 12 10 12 6 0 16 4 23 8
7 5 22 6 35 3 12 -3 16 -3 9 0 -6 3 -10 9 -7 14 3 4 -2 10 -10 14 -8 3 -15 1
-15 -5 0 -6 -5 -7 -12 -3 -7 5 -8 3 -3 -6 6 -10 4 -12 -8 -7 -9 3 -18 1 -21
-6 -3 -9 -5 -9 -5 1 -1 7 -15 12 -33 12 -25 0 -29 3 -18 10 8 5 24 7 35 3 19
-5 19 -5 2 14 -15 17 -15 22 -4 31 8 7 18 8 22 4 5 -4 5 -1 0 7 -6 10 -4 12 4
7 9 -6 9 -11 0 -22 -9 -11 -8 -14 5 -14 21 0 21 33 0 51 -14 12 -14 14 3 20
14 6 11 7 -9 6 -26 -1 -41 -17 -17 -17 6 0 9 -6 6 -12 -2 -7 -14 -12 -27 -10
-12 2 -20 0 -17 -6 4 -5 0 -9 -8 -9 -17 0 -20 13 -5 22 5 3 7 12 4 19 -3 9 2
16 13 18 15 3 15 5 -4 10 -13 3 -23 3 -24 0z"/>
<path d="M1978 2280 c-26 -14 -39 -17 -44 -8 -4 7 -3 8 4 4 7 -4 12 -2 12 3 0
20 -21 11 -29 -11 -11 -29 -4 -48 18 -49 10 0 11 -2 4 -6 -7 -2 -13 -12 -13
-21 0 -15 2 -15 10 -2 7 11 10 11 10 2 0 -7 5 -10 10 -7 6 4 7 11 4 17 -5 7
-2 8 6 3 10 -6 4 -15 -21 -36 -19 -16 -28 -29 -21 -29 6 0 12 -5 12 -11 0 -5
-4 -8 -9 -5 -5 3 -11 0 -14 -7 -4 -10 2 -13 18 -9 16 3 22 9 19 21 -3 9 1 6 7
-6 14 -27 37 -30 35 -5 0 9 5 16 12 15 6 -2 12 3 12 11 0 9 9 14 20 13 20 -1
29 -17 11 -17 -6 0 -8 -9 -6 -20 3 -17 1 -18 -14 -11 -13 8 -18 6 -18 -5 0
-12 7 -14 29 -10 16 3 28 1 28 -5 0 -5 17 -9 37 -7 20 1 38 -3 40 -9 2 -6 15
-9 29 -7 17 3 24 0 24 -12 0 -15 2 -15 22 -2 20 13 23 24 23 80 0 46 -3 64
-12 61 -6 -3 -9 -11 -6 -19 3 -8 2 -14 -3 -13 -21 4 -26 -2 -14 -16 7 -8 8
-15 4 -15 -5 0 -15 9 -22 20 -16 26 -32 26 -25 1 4 -15 0 -20 -16 -18 -21 1
-31 17 -11 17 6 0 5 8 -2 20 -12 19 -13 19 -20 1 -5 -14 -13 -18 -27 -14 -12
3 -21 10 -21 15 0 5 -4 6 -10 3 -5 -3 -10 1 -10 10 0 11 7 14 24 11 19 -3 25
1 28 18 4 17 0 22 -17 21 -12 0 -28 -5 -36 -12 -24 -20 -42 -1 -29 31 5 15 14
25 18 22 5 -3 9 2 9 10 0 10 -4 11 -11 4 -13 -13 -29 -13 -21 0 8 13 7 13 -37
-10z"/>
</g>
</svg>
